<svg width="1728" height="33" viewBox="0 0 1728 33" fill="none" xmlns="http://www.w3.org/2000/svg">
<path d="M571.824 0C560.229 0 554.371 7.80623 549.204 14.6991C544.21 21.3637 539.893 27.1149 531.152 27.1149C522.411 27.1149 518.094 21.3637 513.099 14.6991C507.933 7.80623 502.075 0 490.479 0C478.884 0 473.026 7.80623 467.86 14.6991C462.865 21.3637 458.548 27.1149 449.807 27.1149C441.066 27.1149 436.749 21.3637 431.754 14.6991C426.588 7.80623 420.73 0 409.135 0C397.54 0 391.681 7.80623 386.515 14.6991C381.52 21.3637 377.203 27.1149 368.462 27.1149C359.721 27.1149 355.412 21.3637 350.41 14.6991C345.244 7.80623 339.385 0 327.79 0C316.195 0 310.337 7.80623 305.171 14.6991C300.176 21.3637 295.859 27.1149 287.118 27.1149C278.377 27.1149 274.067 21.3637 269.065 14.6991C263.899 7.80623 258.041 0 246.446 0C234.85 0 228.992 7.80623 223.826 14.6991C218.831 21.3637 214.514 27.1149 205.773 27.1149C197.032 27.1149 192.722 21.3637 187.72 14.6991C182.554 7.80623 176.696 0 165.101 0C153.506 0 147.648 7.80623 142.481 14.6991C137.487 21.3637 133.17 27.1149 124.429 27.1149C115.688 27.1149 111.371 21.3637 106.376 14.6991C101.21 7.80623 95.3516 0 83.7564 0C72.1612 0 66.303 7.80623 61.1369 14.6991C56.142 21.3637 51.8251 27.1149 43.0841 27.1149C34.3431 27.1149 30.0261 21.3637 25.0313 14.6991C19.9009 7.80623 14.0498 0 2.45461 0C1.60549 0 0.79204 0.0499484 0 0.128439V5.88678C0.784904 5.77975 1.59121 5.70839 2.45461 5.70839C11.1956 5.70839 15.5126 11.4596 20.5074 18.1241C25.6735 25.017 31.5317 32.8233 43.1269 32.8233C54.7221 32.8233 60.5803 25.017 65.7464 18.1241C70.7413 11.4596 75.0582 5.70839 83.7992 5.70839C92.5402 5.70839 96.8572 11.4596 101.852 18.1241C107.018 25.017 112.876 32.8233 124.472 32.8233C136.067 32.8233 141.925 25.017 147.091 18.1241C152.086 11.4596 156.403 5.70839 165.144 5.70839C173.885 5.70839 178.195 11.4596 183.197 18.1241C188.363 25.017 194.221 32.8233 205.816 32.8233C217.411 32.8233 223.27 25.017 228.436 18.1241C233.43 11.4596 237.747 5.70839 246.488 5.70839C255.229 5.70839 259.546 11.4596 264.541 18.1241C269.707 25.017 275.566 32.8233 287.161 32.8233C298.756 32.8233 304.614 25.017 309.78 18.1241C314.775 11.4596 319.092 5.70839 327.833 5.70839C336.574 5.70839 340.884 11.4596 345.886 18.1241C351.052 25.017 356.91 32.8233 368.505 32.8233C380.1 32.8233 385.959 25.017 391.125 18.1241C396.12 11.4596 400.437 5.70839 409.178 5.70839C417.919 5.70839 422.236 11.4596 427.23 18.1241C432.396 25.017 438.255 32.8233 449.85 32.8233C461.445 32.8233 467.303 25.017 472.469 18.1241C477.464 11.4596 481.781 5.70839 490.522 5.70839C499.263 5.70839 503.58 11.4596 508.575 18.1241C513.741 25.017 519.599 32.8233 531.194 32.8233C542.79 32.8233 548.648 25.017 553.814 18.1241C558.809 11.4596 563.126 5.70839 571.867 5.70839C580.608 5.70839 584.639 11.0957 589.434 17.4748V8.39847C585.224 3.78181 579.937 0 571.867 0L571.824 0Z" fill="#FFC86A"/>
<path d="M1140.52 0C1128.93 0 1123.07 7.80623 1117.9 14.6991C1112.91 21.3637 1108.59 27.1149 1099.85 27.1149C1091.11 27.1149 1086.79 21.3637 1081.8 14.6991C1076.63 7.80623 1070.77 0 1059.18 0C1047.58 0 1041.72 7.80623 1036.56 14.6991C1031.56 21.3637 1027.25 27.1149 1018.51 27.1149C1009.76 27.1149 1005.45 21.3637 1000.45 14.6991C995.287 7.80623 989.429 0 977.833 0C966.238 0 960.38 7.80623 955.214 14.6991C950.219 21.3637 945.902 27.1149 937.161 27.1149C928.42 27.1149 924.11 21.3637 919.108 14.6991C913.942 7.80623 908.084 0 896.489 0C884.894 0 879.035 7.80623 873.869 14.6991C868.875 21.3637 864.558 27.1149 855.817 27.1149C847.076 27.1149 842.766 21.3637 837.764 14.6991C832.598 7.80623 826.74 0 815.144 0C803.549 0 797.691 7.80623 792.525 14.6991C787.53 21.3637 783.213 27.1149 774.472 27.1149C765.731 27.1149 761.421 21.3637 756.419 14.6991C751.253 7.80623 745.395 0 733.8 0C722.205 0 716.346 7.80623 711.18 14.6991C706.185 21.3637 701.868 27.1149 693.127 27.1149C684.386 27.1149 680.069 21.3637 675.075 14.6991C669.909 7.80623 664.05 0 652.455 0C640.86 0 635.002 7.80623 629.836 14.6991C624.841 21.3637 620.524 27.1149 611.783 27.1149C603.042 27.1149 598.725 21.3637 593.73 14.6991C588.6 7.80623 582.749 0 571.153 0C570.304 0 569.491 0.0499484 568.699 0.128439V5.88678C569.484 5.77975 570.29 5.70839 571.153 5.70839C579.894 5.70839 584.211 11.4596 589.206 18.1241C594.372 25.017 600.23 32.8233 611.826 32.8233C623.421 32.8233 629.279 25.017 634.445 18.1241C639.44 11.4596 643.757 5.70839 652.498 5.70839C661.239 5.70839 665.556 11.4596 670.551 18.1241C675.717 25.017 681.575 32.8233 693.17 32.8233C704.765 32.8233 710.624 25.017 715.79 18.1241C720.785 11.4596 725.102 5.70839 733.843 5.70839C742.584 5.70839 746.893 11.4596 751.895 18.1241C757.061 25.017 762.92 32.8233 774.515 32.8233C786.11 32.8233 791.968 25.017 797.134 18.1241C802.129 11.4596 806.446 5.70839 815.187 5.70839C823.928 5.70839 828.245 11.4596 833.24 18.1241C838.406 25.017 844.264 32.8233 855.859 32.8233C867.455 32.8233 873.313 25.017 878.479 18.1241C883.474 11.4596 887.791 5.70839 896.532 5.70839C905.273 5.70839 909.583 11.4596 914.585 18.1241C919.751 25.017 925.609 32.8233 937.204 32.8233C948.799 32.8233 954.657 25.017 959.824 18.1241C964.818 11.4596 969.135 5.70839 977.876 5.70839C986.617 5.70839 990.934 11.4596 995.929 18.1241C1001.1 25.017 1006.95 32.8233 1018.55 32.8233C1030.14 32.8233 1036 25.017 1041.17 18.1241C1046.16 11.4596 1050.48 5.70839 1059.22 5.70839C1067.96 5.70839 1072.28 11.4596 1077.27 18.1241C1082.44 25.017 1088.3 32.8233 1099.89 32.8233C1111.49 32.8233 1117.35 25.017 1122.51 18.1241C1127.51 11.4596 1131.82 5.70839 1140.57 5.70839C1149.31 5.70839 1153.34 11.0957 1158.13 17.4748V8.39847C1153.92 3.78181 1148.64 0 1140.57 0L1140.52 0Z" fill="#FFC86A"/>
<path d="M1710.39 0C1698.79 0 1692.94 7.80623 1687.77 14.6991C1682.78 21.3637 1678.46 27.1149 1669.72 27.1149C1660.98 27.1149 1656.66 21.3637 1651.66 14.6991C1646.5 7.80623 1640.64 0 1629.05 0C1617.45 0 1611.59 7.80623 1606.43 14.6991C1601.43 21.3637 1597.11 27.1149 1588.37 27.1149C1579.63 27.1149 1575.31 21.3637 1570.32 14.6991C1565.15 7.80623 1559.3 0 1547.7 0C1536.11 0 1530.25 7.80623 1525.08 14.6991C1520.09 21.3637 1515.77 27.1149 1507.03 27.1149C1498.29 27.1149 1493.98 21.3637 1488.98 14.6991C1483.81 7.80623 1477.95 0 1466.36 0C1454.76 0 1448.9 7.80623 1443.74 14.6991C1438.74 21.3637 1434.42 27.1149 1425.68 27.1149C1416.94 27.1149 1412.63 21.3637 1407.63 14.6991C1402.46 7.80623 1396.61 0 1385.01 0C1373.42 0 1367.56 7.80623 1362.39 14.6991C1357.4 21.3637 1353.08 27.1149 1344.34 27.1149C1335.6 27.1149 1331.29 21.3637 1326.29 14.6991C1321.12 7.80623 1315.26 0 1303.67 0C1292.07 0 1286.21 7.80623 1281.05 14.6991C1276.05 21.3637 1271.74 27.1149 1262.99 27.1149C1254.25 27.1149 1249.94 21.3637 1244.94 14.6991C1239.78 7.80623 1233.92 0 1222.32 0C1210.73 0 1204.87 7.80623 1199.7 14.6991C1194.71 21.3637 1190.39 27.1149 1181.65 27.1149C1172.91 27.1149 1168.59 21.3637 1163.6 14.6991C1158.47 7.80623 1152.62 0 1141.02 0C1140.17 0 1139.36 0.0499484 1138.57 0.128439V5.88678C1139.35 5.77975 1140.16 5.70839 1141.02 5.70839C1149.76 5.70839 1154.08 11.4596 1159.07 18.1241C1164.24 25.017 1170.1 32.8233 1181.69 32.8233C1193.29 32.8233 1199.15 25.017 1204.31 18.1241C1209.31 11.4596 1213.62 5.70839 1222.36 5.70839C1231.11 5.70839 1235.42 11.4596 1240.42 18.1241C1245.58 25.017 1251.44 32.8233 1263.04 32.8233C1274.63 32.8233 1280.49 25.017 1285.66 18.1241C1290.65 11.4596 1294.97 5.70839 1303.71 5.70839C1312.45 5.70839 1316.76 11.4596 1321.76 18.1241C1326.93 25.017 1332.79 32.8233 1344.38 32.8233C1355.98 32.8233 1361.84 25.017 1367 18.1241C1372 11.4596 1376.31 5.70839 1385.05 5.70839C1393.8 5.70839 1398.11 11.4596 1403.11 18.1241C1408.27 25.017 1414.13 32.8233 1425.73 32.8233C1437.32 32.8233 1443.18 25.017 1448.35 18.1241C1453.34 11.4596 1457.66 5.70839 1466.4 5.70839C1475.14 5.70839 1479.45 11.4596 1484.45 18.1241C1489.62 25.017 1495.48 32.8233 1507.07 32.8233C1518.67 32.8233 1524.52 25.017 1529.69 18.1241C1534.69 11.4596 1539 5.70839 1547.74 5.70839C1556.48 5.70839 1560.8 11.4596 1565.8 18.1241C1570.96 25.017 1576.82 32.8233 1588.42 32.8233C1600.01 32.8233 1605.87 25.017 1611.04 18.1241C1616.03 11.4596 1620.35 5.70839 1629.09 5.70839C1637.83 5.70839 1642.15 11.4596 1647.14 18.1241C1652.31 25.017 1658.16 32.8233 1669.76 32.8233C1681.36 32.8233 1687.21 25.017 1692.38 18.1241C1697.37 11.4596 1701.69 5.70839 1710.43 5.70839C1719.17 5.70839 1723.2 11.0957 1728 17.4748V8.39847C1723.79 3.78181 1718.5 0 1710.43 0L1710.39 0Z" fill="#FFC86A"/>
</svg>
