<svg width="1728" height="17" viewBox="0 0 1728 17" fill="none" xmlns="http://www.w3.org/2000/svg">
<path d="M287.542 0C281.711 0 278.766 3.98443 276.168 7.50267C273.656 10.9044 271.485 13.8399 267.09 13.8399C262.695 13.8399 260.524 10.9044 258.012 7.50267C255.414 3.98443 252.469 0 246.638 0C240.807 0 237.861 3.98443 235.264 7.50267C232.752 10.9044 230.581 13.8399 226.186 13.8399C221.79 13.8399 219.62 10.9044 217.108 7.50267C214.51 3.98443 211.564 0 205.734 0C199.903 0 196.957 3.98443 194.359 7.50267C191.848 10.9044 189.677 13.8399 185.282 13.8399C180.886 13.8399 178.719 10.9044 176.204 7.50267C173.606 3.98443 170.66 0 164.829 0C158.999 0 156.053 3.98443 153.455 7.50267C150.944 10.9044 148.773 13.8399 144.377 13.8399C139.982 13.8399 137.815 10.9044 135.3 7.50267C132.702 3.98443 129.756 0 123.925 0C118.095 0 115.149 3.98443 112.551 7.50267C110.039 10.9044 107.869 13.8399 103.473 13.8399C99.0778 13.8399 96.9106 10.9044 94.3954 7.50267C91.7976 3.98443 88.8518 0 83.0211 0C77.1905 0 74.2447 3.98443 71.6469 7.50267C69.1352 10.9044 66.9645 13.8399 62.569 13.8399C58.1736 13.8399 56.0028 10.9044 53.4912 7.50267C50.8934 3.98443 47.9476 0 42.117 0C36.2863 0 33.3405 3.98443 30.7427 7.50267C28.2311 10.9044 26.0603 13.8399 21.6649 13.8399C17.2695 13.8399 15.0987 10.9044 12.587 7.50267C10.0072 3.98443 7.06494 0 1.2343 0C0.807319 0 0.398278 0.0254945 0 0.0655573V3.00471C0.394689 2.95008 0.800143 2.91366 1.2343 2.91366C5.62971 2.91366 7.8005 5.84917 10.3122 9.25087C12.9099 12.7691 15.8558 16.7535 21.6864 16.7535C27.517 16.7535 30.4629 12.7691 33.0606 9.25087C35.5723 5.84917 37.7431 2.91366 42.1385 2.91366C46.5339 2.91366 48.7047 5.84917 51.2163 9.25087C53.8141 12.7691 56.7599 16.7535 62.5906 16.7535C68.4212 16.7535 71.367 12.7691 73.9648 9.25087C76.4765 5.84917 78.6473 2.91366 83.0427 2.91366C87.4381 2.91366 89.6053 5.84917 92.1205 9.25087C94.7183 12.7691 97.6641 16.7535 103.495 16.7535C109.325 16.7535 112.271 12.7691 114.869 9.25087C117.381 5.84917 119.551 2.91366 123.947 2.91366C128.342 2.91366 130.513 5.84917 133.025 9.25087C135.622 12.7691 138.568 16.7535 144.399 16.7535C150.23 16.7535 153.175 12.7691 155.773 9.25087C158.285 5.84917 160.456 2.91366 164.851 2.91366C169.246 2.91366 171.414 5.84917 173.929 9.25087C176.527 12.7691 179.472 16.7535 185.303 16.7535C191.134 16.7535 194.08 12.7691 196.677 9.25087C199.189 5.84917 201.36 2.91366 205.755 2.91366C210.151 2.91366 212.321 5.84917 214.833 9.25087C217.431 12.7691 220.377 16.7535 226.207 16.7535C232.038 16.7535 234.984 12.7691 237.582 9.25087C240.093 5.84917 242.264 2.91366 246.659 2.91366C251.055 2.91366 253.226 5.84917 255.737 9.25087C258.335 12.7691 261.281 16.7535 267.111 16.7535C272.942 16.7535 275.888 12.7691 278.486 9.25087C280.997 5.84917 283.168 2.91366 287.564 2.91366C291.959 2.91366 293.986 5.66342 296.397 8.91944V4.28672C294.28 1.9303 291.622 0 287.564 0L287.542 0Z" fill="#0A433C"/>
<path d="M573.513 0C567.682 0 564.736 3.98443 562.138 7.50267C559.627 10.9044 557.456 13.8399 553.06 13.8399C548.665 13.8399 546.494 10.9044 543.983 7.50267C541.385 3.98443 538.439 0 532.608 0C526.778 0 523.832 3.98443 521.234 7.50267C518.722 10.9044 516.552 13.8399 512.156 13.8399C507.761 13.8399 505.59 10.9044 503.078 7.50267C500.481 3.98443 497.535 0 491.704 0C485.873 0 482.928 3.98443 480.33 7.50267C477.818 10.9044 475.647 13.8399 471.252 13.8399C466.857 13.8399 464.689 10.9044 462.174 7.50267C459.576 3.98443 456.631 0 450.8 0C444.969 0 442.023 3.98443 439.426 7.50267C436.914 10.9044 434.743 13.8399 430.348 13.8399C425.952 13.8399 423.785 10.9044 421.27 7.50267C418.672 3.98443 415.726 0 409.896 0C404.065 0 401.119 3.98443 398.522 7.50267C396.01 10.9044 393.839 13.8399 389.444 13.8399C385.048 13.8399 382.881 10.9044 380.366 7.50267C377.768 3.98443 374.822 0 368.992 0C363.161 0 360.215 3.98443 357.617 7.50267C355.106 10.9044 352.935 13.8399 348.54 13.8399C344.144 13.8399 341.973 10.9044 339.462 7.50267C336.864 3.98443 333.918 0 328.087 0C322.257 0 319.311 3.98443 316.713 7.50267C314.202 10.9044 312.031 13.8399 307.635 13.8399C303.24 13.8399 301.069 10.9044 298.557 7.50267C295.978 3.98443 293.035 0 287.205 0C286.778 0 286.369 0.0254945 285.97 0.0655573V3.00471C286.365 2.95008 286.771 2.91366 287.205 2.91366C291.6 2.91366 293.771 5.84917 296.283 9.25087C298.88 12.7691 301.826 16.7535 307.657 16.7535C313.487 16.7535 316.433 12.7691 319.031 9.25087C321.543 5.84917 323.714 2.91366 328.109 2.91366C332.504 2.91366 334.675 5.84917 337.187 9.25087C339.785 12.7691 342.73 16.7535 348.561 16.7535C354.392 16.7535 357.337 12.7691 359.935 9.25087C362.447 5.84917 364.618 2.91366 369.013 2.91366C373.409 2.91366 375.576 5.84917 378.091 9.25087C380.689 12.7691 383.635 16.7535 389.465 16.7535C395.296 16.7535 398.242 12.7691 400.839 9.25087C403.351 5.84917 405.522 2.91366 409.917 2.91366C414.313 2.91366 416.483 5.84917 418.995 9.25087C421.593 12.7691 424.539 16.7535 430.369 16.7535C436.2 16.7535 439.146 12.7691 441.744 9.25087C444.255 5.84917 446.426 2.91366 450.821 2.91366C455.217 2.91366 457.384 5.84917 459.899 9.25087C462.497 12.7691 465.443 16.7535 471.274 16.7535C477.104 16.7535 480.05 12.7691 482.648 9.25087C485.159 5.84917 487.33 2.91366 491.726 2.91366C496.121 2.91366 498.292 5.84917 500.804 9.25087C503.401 12.7691 506.347 16.7535 512.178 16.7535C518.008 16.7535 520.954 12.7691 523.552 9.25087C526.064 5.84917 528.234 2.91366 532.63 2.91366C537.025 2.91366 539.196 5.84917 541.708 9.25087C544.305 12.7691 547.251 16.7535 553.082 16.7535C558.913 16.7535 561.858 12.7691 564.456 9.25087C566.968 5.84917 569.139 2.91366 573.534 2.91366C577.929 2.91366 579.957 5.66342 582.368 8.91944V4.28672C580.251 1.9303 577.592 0 573.534 0L573.513 0Z" fill="#0A433C"/>
<path d="M860.07 0C854.24 0 851.294 3.98443 848.696 7.50267C846.184 10.9044 844.014 13.8399 839.618 13.8399C835.223 13.8399 833.052 10.9044 830.54 7.50267C827.943 3.98443 824.997 0 819.166 0C813.336 0 810.39 3.98443 807.792 7.50267C805.28 10.9044 803.109 13.8399 798.714 13.8399C794.319 13.8399 792.148 10.9044 789.636 7.50267C787.038 3.98443 784.093 0 778.262 0C772.431 0 769.486 3.98443 766.888 7.50267C764.376 10.9044 762.205 13.8399 757.81 13.8399C753.415 13.8399 751.247 10.9044 748.732 7.50267C746.134 3.98443 743.188 0 737.358 0C731.527 0 728.581 3.98443 725.984 7.50267C723.472 10.9044 721.301 13.8399 716.906 13.8399C712.51 13.8399 710.343 10.9044 707.828 7.50267C705.23 3.98443 702.284 0 696.454 0C690.623 0 687.677 3.98443 685.079 7.50267C682.568 10.9044 680.397 13.8399 676.002 13.8399C671.606 13.8399 669.439 10.9044 666.924 7.50267C664.326 3.98443 661.38 0 655.549 0C649.719 0 646.773 3.98443 644.175 7.50267C641.664 10.9044 639.493 13.8399 635.097 13.8399C630.702 13.8399 628.531 10.9044 626.02 7.50267C623.422 3.98443 620.476 0 614.645 0C608.815 0 605.869 3.98443 603.271 7.50267C600.759 10.9044 598.589 13.8399 594.193 13.8399C589.798 13.8399 587.627 10.9044 585.115 7.50267C582.535 3.98443 579.593 0 573.763 0C573.336 0 572.927 0.0254945 572.528 0.0655573V3.00471C572.923 2.95008 573.328 2.91366 573.763 2.91366C578.158 2.91366 580.329 5.84917 582.84 9.25087C585.438 12.7691 588.384 16.7535 594.215 16.7535C600.045 16.7535 602.991 12.7691 605.589 9.25087C608.101 5.84917 610.271 2.91366 614.667 2.91366C619.062 2.91366 621.233 5.84917 623.745 9.25087C626.342 12.7691 629.288 16.7535 635.119 16.7535C640.95 16.7535 643.895 12.7691 646.493 9.25087C649.005 5.84917 651.176 2.91366 655.571 2.91366C659.966 2.91366 662.134 5.84917 664.649 9.25087C667.247 12.7691 670.192 16.7535 676.023 16.7535C681.854 16.7535 684.8 12.7691 687.397 9.25087C689.909 5.84917 692.08 2.91366 696.475 2.91366C700.871 2.91366 703.041 5.84917 705.553 9.25087C708.151 12.7691 711.097 16.7535 716.927 16.7535C722.758 16.7535 725.704 12.7691 728.301 9.25087C730.813 5.84917 732.984 2.91366 737.379 2.91366C741.775 2.91366 743.942 5.84917 746.457 9.25087C749.055 12.7691 752.001 16.7535 757.831 16.7535C763.662 16.7535 766.608 12.7691 769.206 9.25087C771.717 5.84917 773.888 2.91366 778.284 2.91366C782.679 2.91366 784.85 5.84917 787.361 9.25087C789.959 12.7691 792.905 16.7535 798.736 16.7535C804.566 16.7535 807.512 12.7691 810.11 9.25087C812.622 5.84917 814.792 2.91366 819.188 2.91366C823.583 2.91366 825.754 5.84917 828.266 9.25087C830.863 12.7691 833.809 16.7535 839.64 16.7535C845.47 16.7535 848.416 12.7691 851.014 9.25087C853.526 5.84917 855.696 2.91366 860.092 2.91366C864.487 2.91366 866.515 5.66342 868.926 8.91944V4.28672C866.809 1.9303 864.15 0 860.092 0L860.07 0Z" fill="#0A433C"/>
<path d="M1146.62 0C1140.79 0 1137.84 3.98443 1135.24 7.50267C1132.73 10.9044 1130.56 13.8399 1126.16 13.8399C1121.77 13.8399 1119.6 10.9044 1117.09 7.50267C1114.49 3.98443 1111.54 0 1105.71 0C1099.88 0 1096.94 3.98443 1094.34 7.50267C1091.83 10.9044 1089.66 13.8399 1085.26 13.8399C1080.86 13.8399 1078.69 10.9044 1076.18 7.50267C1073.58 3.98443 1070.64 0 1064.81 0C1058.98 0 1056.03 3.98443 1053.43 7.50267C1050.92 10.9044 1048.75 13.8399 1044.36 13.8399C1039.96 13.8399 1037.79 10.9044 1035.28 7.50267C1032.68 3.98443 1029.73 0 1023.9 0C1018.07 0 1015.13 3.98443 1012.53 7.50267C1010.02 10.9044 1007.85 13.8399 1003.45 13.8399C999.056 13.8399 996.889 10.9044 994.374 7.50267C991.776 3.98443 988.83 0 983 0C977.169 0 974.223 3.98443 971.625 7.50267C969.114 10.9044 966.943 13.8399 962.547 13.8399C958.152 13.8399 955.985 10.9044 953.47 7.50267C950.872 3.98443 947.926 0 942.095 0C936.265 0 933.319 3.98443 930.721 7.50267C928.209 10.9044 926.039 13.8399 921.643 13.8399C917.248 13.8399 915.077 10.9044 912.565 7.50267C909.968 3.98443 907.022 0 901.191 0C895.361 0 892.415 3.98443 889.817 7.50267C887.305 10.9044 885.134 13.8399 880.739 13.8399C876.344 13.8399 874.173 10.9044 871.661 7.50267C869.081 3.98443 866.139 0 860.309 0C859.882 0 859.472 0.0254945 859.074 0.0655573V3.00471C859.469 2.95008 859.874 2.91366 860.309 2.91366C864.704 2.91366 866.875 5.84917 869.386 9.25087C871.984 12.7691 874.93 16.7535 880.761 16.7535C886.591 16.7535 889.537 12.7691 892.135 9.25087C894.647 5.84917 896.817 2.91366 901.213 2.91366C905.608 2.91366 907.779 5.84917 910.291 9.25087C912.888 12.7691 915.834 16.7535 921.665 16.7535C927.495 16.7535 930.441 12.7691 933.039 9.25087C935.551 5.84917 937.721 2.91366 942.117 2.91366C946.512 2.91366 948.679 5.84917 951.195 9.25087C953.793 12.7691 956.738 16.7535 962.569 16.7535C968.4 16.7535 971.345 12.7691 973.943 9.25087C976.455 5.84917 978.626 2.91366 983.021 2.91366C987.416 2.91366 989.587 5.84917 992.099 9.25087C994.697 12.7691 997.643 16.7535 1003.47 16.7535C1009.3 16.7535 1012.25 12.7691 1014.85 9.25087C1017.36 5.84917 1019.53 2.91366 1023.93 2.91366C1028.32 2.91366 1030.49 5.84917 1033 9.25087C1035.6 12.7691 1038.55 16.7535 1044.38 16.7535C1050.21 16.7535 1053.15 12.7691 1055.75 9.25087C1058.26 5.84917 1060.43 2.91366 1064.83 2.91366C1069.22 2.91366 1071.4 5.84917 1073.91 9.25087C1076.51 12.7691 1079.45 16.7535 1085.28 16.7535C1091.11 16.7535 1094.06 12.7691 1096.66 9.25087C1099.17 5.84917 1101.34 2.91366 1105.73 2.91366C1110.13 2.91366 1112.3 5.84917 1114.81 9.25087C1117.41 12.7691 1120.36 16.7535 1126.19 16.7535C1132.02 16.7535 1134.96 12.7691 1137.56 9.25087C1140.07 5.84917 1142.24 2.91366 1146.64 2.91366C1151.03 2.91366 1153.06 5.66342 1155.47 8.91944V4.28672C1153.35 1.9303 1150.7 0 1146.64 0L1146.62 0Z" fill="#0A433C"/>
<path d="M1432.59 0C1426.76 0 1423.81 3.98443 1421.21 7.50267C1418.7 10.9044 1416.53 13.8399 1412.13 13.8399C1407.74 13.8399 1405.57 10.9044 1403.06 7.50267C1400.46 3.98443 1397.51 0 1391.68 0C1385.85 0 1382.91 3.98443 1380.31 7.50267C1377.8 10.9044 1375.63 13.8399 1371.23 13.8399C1366.84 13.8399 1364.66 10.9044 1362.15 7.50267C1359.55 3.98443 1356.61 0 1350.78 0C1344.95 0 1342 3.98443 1339.4 7.50267C1336.89 10.9044 1334.72 13.8399 1330.33 13.8399C1325.93 13.8399 1323.76 10.9044 1321.25 7.50267C1318.65 3.98443 1315.7 0 1309.87 0C1304.04 0 1301.1 3.98443 1298.5 7.50267C1295.99 10.9044 1293.82 13.8399 1289.42 13.8399C1285.03 13.8399 1282.86 10.9044 1280.34 7.50267C1277.75 3.98443 1274.8 0 1268.97 0C1263.14 0 1260.19 3.98443 1257.6 7.50267C1255.08 10.9044 1252.91 13.8399 1248.52 13.8399C1244.12 13.8399 1241.96 10.9044 1239.44 7.50267C1236.84 3.98443 1233.9 0 1228.07 0C1222.24 0 1219.29 3.98443 1216.69 7.50267C1214.18 10.9044 1212.01 13.8399 1207.61 13.8399C1203.22 13.8399 1201.05 10.9044 1198.54 7.50267C1195.94 3.98443 1192.99 0 1187.16 0C1181.33 0 1178.39 3.98443 1175.79 7.50267C1173.28 10.9044 1171.1 13.8399 1166.71 13.8399C1162.31 13.8399 1160.14 10.9044 1157.63 7.50267C1155.05 3.98443 1152.11 0 1146.28 0C1145.85 0 1145.44 0.0254945 1145.04 0.0655573V3.00471C1145.44 2.95008 1145.84 2.91366 1146.28 2.91366C1150.67 2.91366 1152.85 5.84917 1155.36 9.25087C1157.95 12.7691 1160.9 16.7535 1166.73 16.7535C1172.56 16.7535 1175.51 12.7691 1178.11 9.25087C1180.62 5.84917 1182.79 2.91366 1187.18 2.91366C1191.58 2.91366 1193.75 5.84917 1196.26 9.25087C1198.86 12.7691 1201.8 16.7535 1207.64 16.7535C1213.47 16.7535 1216.41 12.7691 1219.01 9.25087C1221.52 5.84917 1223.69 2.91366 1228.09 2.91366C1232.48 2.91366 1234.65 5.84917 1237.17 9.25087C1239.76 12.7691 1242.71 16.7535 1248.54 16.7535C1254.37 16.7535 1257.32 12.7691 1259.91 9.25087C1262.43 5.84917 1264.6 2.91366 1268.99 2.91366C1273.39 2.91366 1275.56 5.84917 1278.07 9.25087C1280.67 12.7691 1283.61 16.7535 1289.44 16.7535C1295.27 16.7535 1298.22 12.7691 1300.82 9.25087C1303.33 5.84917 1305.5 2.91366 1309.9 2.91366C1314.29 2.91366 1316.46 5.84917 1318.97 9.25087C1321.57 12.7691 1324.52 16.7535 1330.35 16.7535C1336.18 16.7535 1339.12 12.7691 1341.72 9.25087C1344.23 5.84917 1346.4 2.91366 1350.8 2.91366C1355.2 2.91366 1357.37 5.84917 1359.88 9.25087C1362.48 12.7691 1365.42 16.7535 1371.25 16.7535C1377.08 16.7535 1380.03 12.7691 1382.63 9.25087C1385.14 5.84917 1387.31 2.91366 1391.7 2.91366C1396.1 2.91366 1398.27 5.84917 1400.78 9.25087C1403.38 12.7691 1406.33 16.7535 1412.16 16.7535C1417.99 16.7535 1420.93 12.7691 1423.53 9.25087C1426.04 5.84917 1428.21 2.91366 1432.61 2.91366C1437 2.91366 1439.03 5.66342 1441.44 8.91944V4.28672C1439.33 1.9303 1436.67 0 1432.61 0L1432.59 0Z" fill="#0A433C"/>
<path d="M1719.14 0C1713.31 0 1710.37 3.98443 1707.77 7.50267C1705.26 10.9044 1703.09 13.8399 1698.69 13.8399C1694.3 13.8399 1692.13 10.9044 1689.61 7.50267C1687.02 3.98443 1684.07 0 1678.24 0C1672.41 0 1669.46 3.98443 1666.87 7.50267C1664.35 10.9044 1662.18 13.8399 1657.79 13.8399C1653.39 13.8399 1651.22 10.9044 1648.71 7.50267C1646.11 3.98443 1643.17 0 1637.34 0C1631.51 0 1628.56 3.98443 1625.96 7.50267C1623.45 10.9044 1621.28 13.8399 1616.88 13.8399C1612.49 13.8399 1610.32 10.9044 1607.81 7.50267C1605.21 3.98443 1602.26 0 1596.43 0C1590.6 0 1587.66 3.98443 1585.06 7.50267C1582.55 10.9044 1580.38 13.8399 1575.98 13.8399C1571.58 13.8399 1569.42 10.9044 1566.9 7.50267C1564.3 3.98443 1561.36 0 1555.53 0C1549.7 0 1546.75 3.98443 1544.15 7.50267C1541.64 10.9044 1539.47 13.8399 1535.08 13.8399C1530.68 13.8399 1528.51 10.9044 1526 7.50267C1523.4 3.98443 1520.45 0 1514.62 0C1508.79 0 1505.85 3.98443 1503.25 7.50267C1500.74 10.9044 1498.57 13.8399 1494.17 13.8399C1489.78 13.8399 1487.61 10.9044 1485.09 7.50267C1482.5 3.98443 1479.55 0 1473.72 0C1467.89 0 1464.94 3.98443 1462.35 7.50267C1459.83 10.9044 1457.66 13.8399 1453.27 13.8399C1448.87 13.8399 1446.7 10.9044 1444.19 7.50267C1441.61 3.98443 1438.67 0 1432.84 0C1432.41 0 1432 0.0254945 1431.6 0.0655573V3.00471C1432 2.95008 1432.4 2.91366 1432.84 2.91366C1437.23 2.91366 1439.4 5.84917 1441.91 9.25087C1444.51 12.7691 1447.46 16.7535 1453.29 16.7535C1459.12 16.7535 1462.07 12.7691 1464.66 9.25087C1467.17 5.84917 1469.35 2.91366 1473.74 2.91366C1478.14 2.91366 1480.31 5.84917 1482.82 9.25087C1485.42 12.7691 1488.36 16.7535 1494.19 16.7535C1500.02 16.7535 1502.97 12.7691 1505.57 9.25087C1508.08 5.84917 1510.25 2.91366 1514.65 2.91366C1519.04 2.91366 1521.21 5.84917 1523.72 9.25087C1526.32 12.7691 1529.27 16.7535 1535.1 16.7535C1540.93 16.7535 1543.87 12.7691 1546.47 9.25087C1548.98 5.84917 1551.15 2.91366 1555.55 2.91366C1559.94 2.91366 1562.12 5.84917 1564.63 9.25087C1567.23 12.7691 1570.17 16.7535 1576 16.7535C1581.83 16.7535 1584.78 12.7691 1587.38 9.25087C1589.89 5.84917 1592.06 2.91366 1596.45 2.91366C1600.85 2.91366 1603.02 5.84917 1605.53 9.25087C1608.13 12.7691 1611.08 16.7535 1616.91 16.7535C1622.74 16.7535 1625.68 12.7691 1628.28 9.25087C1630.79 5.84917 1632.96 2.91366 1637.36 2.91366C1641.75 2.91366 1643.92 5.84917 1646.44 9.25087C1649.03 12.7691 1651.98 16.7535 1657.81 16.7535C1663.64 16.7535 1666.59 12.7691 1669.18 9.25087C1671.7 5.84917 1673.87 2.91366 1678.26 2.91366C1682.66 2.91366 1684.83 5.84917 1687.34 9.25087C1689.94 12.7691 1692.88 16.7535 1698.71 16.7535C1704.54 16.7535 1707.49 12.7691 1710.09 9.25087C1712.6 5.84917 1714.77 2.91366 1719.17 2.91366C1723.56 2.91366 1725.59 5.66342 1728 8.91944V4.28672C1725.88 1.9303 1723.22 0 1719.17 0L1719.14 0Z" fill="#0A433C"/>
</svg>
